<?xml version="1.0" encoding="UTF-8"?>
<svg xmlns="http://www.w3.org/2000/svg" xmlns:xlink="http://www.w3.org/1999/xlink" viewBox="0 0 120 120" width="120px" height="120px">
<g id="surface16780981">
<path style=" stroke:none;fill-rule:nonzero;fill:rgb(100%,100%,100%);fill-opacity:1;" d="M 92 12 C 83.164062 12 76 19.164062 76 28 C 76.007812 29.125 76.132812 30.246094 76.375 31.34375 L 40.046875 49.507812 C 37.015625 46.019531 32.621094 44.007812 28 44 C 19.164062 44 12 51.164062 12 60 C 12 68.835938 19.164062 76 28 76 C 32.625 75.996094 37.019531 73.988281 40.054688 70.5 L 76.359375 88.65625 C 76.121094 89.753906 76.003906 90.875 76 92 C 76 100.835938 83.164062 108 92 108 C 100.835938 108 108 100.835938 108 92 C 108 83.164062 100.835938 76 92 76 C 87.375 76.003906 82.980469 78.011719 79.945312 81.5 L 43.640625 63.34375 C 43.878906 62.246094 43.996094 61.125 44 60 C 43.992188 58.878906 43.867188 57.761719 43.625 56.664062 L 79.953125 38.5 C 82.984375 41.988281 87.378906 43.992188 92 44 C 100.835938 44 108 36.835938 108 28 C 108 19.164062 100.835938 12 92 12 Z M 92 12 "/>
</g>
</svg>
